<svg xmlns="http://www.w3.org/2000/svg" width="146.263" height="130" viewBox="0 0 146.263 130"><defs><style>.a{fill:#0074e0;}</style></defs><path class="a" d="M60.527,129.959a1.98,1.98,0,0,0,2.542-1.27L98.9,5.425a2.1,2.1,0,0,0-1.27-2.541L87.72.088A2.1,2.1,0,0,0,85.18,1.359L49.344,124.622a2.039,2.039,0,0,0,1.525,2.541ZM39.432,99.207l6.862-7.371a1.994,1.994,0,0,0,0-2.8L19.355,64.9l26.94-23.89a1.994,1.994,0,0,0,0-2.8l-6.862-7.37a2.013,2.013,0,0,0-2.8-.254L1.564,63.626a1.994,1.994,0,0,0,0,2.8L36.637,99.207A2,2,0,0,0,39.432,99.207Zm72.179,0,35.072-32.786a1.994,1.994,0,0,0,0-2.8L111.611,30.586a2.013,2.013,0,0,0-2.8.254l-6.862,7.37a2,2,0,0,0,0,2.8L128.894,64.9,101.953,89.041a2,2,0,0,0,0,2.8l6.862,7.371A2,2,0,0,0,111.611,99.207Z" transform="translate(-0.992 -0.023)"/></svg>