<svg xmlns="http://www.w3.org/2000/svg" width="16" height="15.601" viewBox="0 0 16 15.601"><path d="M5.352,13.124c0,.065-.074.116-.168.116S5,13.2,5,13.124s.074-.116.168-.116S5.352,13.05,5.352,13.124Zm-1-.145c-.023.065.042.139.139.158a.151.151,0,0,0,.2-.065c.019-.065-.042-.139-.139-.168A.166.166,0,0,0,4.348,12.979Zm1.426-.055c-.094.023-.158.084-.148.158s.094.106.19.084.158-.084.148-.148S5.868,12.914,5.774,12.924ZM7.9.563A7.735,7.735,0,0,0,0,8.433,8.087,8.087,0,0,0,5.468,16.15c.413.074.558-.181.558-.39s-.01-1.3-.01-1.981c0,0-2.258.484-2.732-.961,0,0-.368-.939-.9-1.181,0,0-.739-.506.052-.5a1.7,1.7,0,0,1,1.245.832,1.705,1.705,0,0,0,2.352.674,1.793,1.793,0,0,1,.516-1.087c-1.8-.2-3.623-.461-3.623-3.565a2.445,2.445,0,0,1,.761-1.9A3.048,3.048,0,0,1,3.774,3.9C4.448,3.695,6,4.775,6,4.775a7.621,7.621,0,0,1,4.052,0S11.6,3.692,12.277,3.9a3.046,3.046,0,0,1,.084,2.19,2.507,2.507,0,0,1,.832,1.9c0,3.113-1.9,3.361-3.7,3.565a1.908,1.908,0,0,1,.548,1.5c0,1.087-.01,2.432-.01,2.7,0,.21.148.465.558.39A8.013,8.013,0,0,0,16,8.433,7.91,7.91,0,0,0,7.9.563ZM3.135,11.688c-.042.032-.032.106.023.168s.126.074.168.032.032-.106-.023-.168S3.177,11.646,3.135,11.688Zm-.348-.261c-.023.042.01.094.074.126A.1.1,0,0,0,3,11.53c.023-.042-.01-.094-.074-.126S2.81,11.395,2.787,11.427Zm1.045,1.148c-.052.042-.032.139.042.2s.168.084.21.032.023-.139-.042-.2S3.874,12.524,3.832,12.575ZM3.465,12.1c-.052.032-.052.116,0,.19s.139.106.181.074a.147.147,0,0,0,0-.2C3.6,12.092,3.516,12.059,3.465,12.1Z" transform="translate(0 -0.563)" fill="#73768a"/></svg>