<?xml version="1.0" encoding="utf-8"?>
<!-- Generator: Adobe Illustrator 27.9.0, SVG Export Plug-In . SVG Version: 6.00 Build 0)  -->
<svg version="1.1" id="Layer_1" xmlns="http://www.w3.org/2000/svg" xmlns:xlink="http://www.w3.org/1999/xlink" x="0px" y="0px"
	 viewBox="0 0 500 114.2" style="enable-background:new 0 0 500 114.2;" xml:space="preserve">
<style type="text/css">
	.st0{fill-rule:evenodd;clip-rule:evenodd;fill:#EC1218;}
	.st1{fill-rule:evenodd;clip-rule:evenodd;}
</style>
<g>
	<path id="Logo-Icon_00000071522039454059213050000006069587625824469950_" class="st0" d="M95.1,67.1c0,3.4-2,6.5-5.9,7.1
		c-6.7,1.2-20.7,1.9-32.5,1.9s-25.8-0.7-32.5-1.9c-3.9-0.7-5.8-3.8-5.8-7.1V44.8c0-3.4,2.6-6.6,5.8-7.1c2-0.4,6.6-0.7,10.2-0.7
		c1.4,0,2.4,1.1,2.5,2.7v15.5c6.9,0,12.9-0.4,19.9-0.4s12.9,0.4,19.9,0.4V39.7c0-1.6,1.1-2.7,2.4-2.7c3.6,0,8.2,0.3,10.2,0.7
		c3.2,0.6,5.9,3.8,5.9,7.1L95.1,67.1L95.1,67.1z M56.6,0C25.4,0,0,25.6,0,57.1s25.4,57,56.6,57s56.6-25.6,56.6-57S88,0,56.6,0
		L56.6,0z"/>
	<g id="Logo-Type_00000178907945142405399560000011273747954129021353_" transform="translate(150.220000, 27.826087)">
		<path id="Fill-1_00000145027004704381003740000005173022079452320670_" class="st1" d="M23.2,56.6c-17.6,0-26.4-12.8-26.4-27
			c0-14.1,9.2-26.8,26.6-26.8c6.7,0,11.5,1.4,15.4,4.1l-5,8.3c-2.8-1.8-6-3-10.6-3c-9.5,0-14.5,7.6-14.5,17.1
			c0,9.7,4.8,17.9,14.7,17.9c5.5,0,8.9-1.9,11.6-4l4.6,8C36.9,53.6,30.7,56.6,23.2,56.6"/>
		<path id="Fill-3_00000098216766268636751890000009930418025084942768_" class="st1" d="M60.8,56.6c-13.1,0-18.9-10-18.9-19.9
			s5.7-20.1,18.8-20.1s19.1,9.9,19.1,19.8C79.8,46.1,74,56.6,60.8,56.6 M60.5,24.6c-5.7,0-7.4,4.8-7.4,11.8c0,7,2.2,12.1,7.8,12.1
			c5.7,0,7.6-4.7,7.6-11.8S66.3,24.6,60.5,24.6"/>
		<path id="Fill-5_00000134215261643024211060000012924234594336712088_" class="st1" d="M96.5,17.6V42c0,3.8,1.3,5.6,4.9,5.6
			c3.8,0,6.7-3.7,7.4-4.6V17.6h10.6v26.9c0,5,0.6,8.9,1.1,11.2h-10.4c-0.3-1.1-0.7-3.5-0.8-5c-2,2.6-5.9,6-12.1,6
			c-8.3,0-11.3-5.4-11.3-12.4V17.6H96.5z"/>
		<path id="Fill-7_00000183927434792379923870000004180268317855229111_" class="st1" d="M145.4,56.6c-12.2,0-19.6-8-19.6-20
			c0-12.8,8.4-20.1,20-20.1c6.1,0,9.7,1.8,11.5,3l-3.4,7.3c-1.6-1.1-4.1-2.2-7.8-2.2c-5.9,0-9.1,4.6-9.1,11.6s3,12,9.3,12
			c4.2,0,6.9-1.5,8-2.2l3.2,7.1C155.7,54.3,152.3,56.6,145.4,56.6"/>
		<path id="Fill-9_00000039850609819776140100000012749097934332436878_" class="st1" d="M185.9,55.7V31.3c0-3.8-1.3-5.6-4.8-5.6
			c-3.9,0-6.8,3.6-7.5,4.6v25.5H163V-0.6h10.6v22.7c1.9-2.1,5.5-5.5,11.7-5.5c8.3,0,11.3,5.3,11.3,12.4v26.6L185.9,55.7L185.9,55.7z
			"/>
		<path id="Fill-11_00000058582682270140676600000016942292308380535950_" class="st1" d="M215.8-0.6v21.1c1.7-1.7,5-4,9.2-4
			c9.4,0,15.9,6.5,15.9,19.7c0,13.1-8.7,20.3-20.1,20.3c-8.6,0-13.8-2.1-15.6-3.1v-54C205.1-0.6,215.8-0.6,215.8-0.6z M215.8,47.4
			c0.7,0.2,2.3,0.8,5,0.8c5.5,0,8.8-4.1,8.8-11.9c0-7-2.3-11.2-7.7-11.2c-3.2,0-5.5,2-6.2,2.8L215.8,47.4L215.8,47.4z"/>
		<path id="Fill-13_00000098900323060865456960000000184451010288751750_" class="st1" d="M267.2,55.7c-0.3-1-0.6-2.9-0.7-4.1
			c-1.6,2-5.2,5-10.5,5c-6.4,0-11.4-3.9-11.4-10.7c0-9.9,10-13.5,20.1-13.5h1.3v-2.2c0-3.2-1.3-5.1-6-5.1c-4.8,0-8.1,2.5-9.6,3.6
			l-4.5-6.6c2.3-2,7.2-5.5,15.3-5.5c10.4,0,15.3,4.1,15.3,14.2v13.4c0,5.2,0.6,9,1.1,11.5H267.2z M266,38.9h-1.3
			c-5.8,0-9.8,1.7-9.8,6.1c0,2.7,2.1,3.9,4.4,3.9c3.6,0,5.6-2,6.7-3.2V38.9z"/>
		<path id="Fill-15_00000129190266633936662140000000206175849612067498_" class="st1" d="M295.7,56.6c-6.8,0-11.1-2-13.4-3.6
			l3.6-7.5c1.4,1,5.1,3.1,9.3,3.1c3.9,0,6.1-1.1,6.1-3.3c0-2.5-4.2-3.2-9.6-5.8c-5.2-2.5-8.2-5.5-8.2-11.2c0-7.2,5.6-11.8,14.2-11.8
			c6.5,0,10.4,2,12.2,3l-3.7,7.3c-1.4-1-4.4-2.4-8-2.4c-3.6,0-5.1,1.3-5.1,3.2c0,2.5,3.5,3.1,7.7,4.8c5.9,2.4,10.1,5.2,10.1,11.7
			C310.7,52.4,305,56.6,295.7,56.6"/>
		<path id="Fill-17_00000087382546704092654860000000032064429197532058_" class="st1" d="M335.3,48.6c5.1,0,7.9-1.6,9.7-2.6
			l3.4,6.9c-2.5,1.4-6.4,3.7-14.1,3.7c-12.6,0-19.8-8-19.8-20.2c0-12.1,8.3-19.8,18.7-19.8c11.9,0,17.6,8.3,16.3,22.6H326
			C326.4,44.9,329.2,48.6,335.3,48.6L335.3,48.6z M339.3,31.9c-0.1-4.2-1.7-7.6-6.3-7.6c-4.2,0-6.6,2.7-7.2,7.6H339.3z"/>
	</g>
</g>
</svg>
