<svg xmlns="http://www.w3.org/2000/svg" width="32.1" height="26.1" viewBox="0 0 32.1 26.1">
  <defs>
    <style>
      .cls-1 {
        fill: #333;
      }
    </style>
  </defs>
  <path id="twitter" class="cls-1" d="M32,7.1a11.836,11.836,0,0,1-3.8,1,6.462,6.462,0,0,0,2.9-3.6,12.606,12.606,0,0,1-4.2,1.6A6.492,6.492,0,0,0,22.1,4a6.594,6.594,0,0,0-6.6,6.6,7.719,7.719,0,0,0,.2,1.5A18.458,18.458,0,0,1,2.2,5.2a6.294,6.294,0,0,0-.9,3.3A6.765,6.765,0,0,0,4.2,14a6.109,6.109,0,0,1-3-.8v.1a6.543,6.543,0,0,0,5.3,6.4,4.678,4.678,0,0,1-1.7.2,4.869,4.869,0,0,1-1.2-.1,6.679,6.679,0,0,0,6.1,4.6,12.917,12.917,0,0,1-8.2,2.8,9.151,9.151,0,0,1-1.6-.1,18.438,18.438,0,0,0,10.1,3c12.1,0,18.7-10,18.7-18.7v-.8A13.336,13.336,0,0,0,32,7.2Z" transform="translate(0.1 -4)"/>
</svg>
