<svg id="g5" xmlns="http://www.w3.org/2000/svg" width="32" height="22.405" viewBox="0 0 32 22.405">
  <defs>
    <style>
      .cls-1 {
        fill: #282828;
      }

      .cls-2 {
        fill: #fff;
      }
    </style>
  </defs>
  <path id="path7" class="cls-1" d="M31.341,3.506A4.009,4.009,0,0,0,28.52.685C26.016,0,16,0,16,0S5.984,0,3.479.659A4.092,4.092,0,0,0,.659,3.506,42.245,42.245,0,0,0,0,11.2a42.089,42.089,0,0,0,.659,7.7,4.009,4.009,0,0,0,2.82,2.82c2.53.685,12.521.685,12.521.685s10.016,0,12.521-.659a4.009,4.009,0,0,0,2.82-2.82,42.245,42.245,0,0,0,.659-7.7,40.113,40.113,0,0,0-.659-7.723Z"/>
  <path id="polygon9" class="cls-2" d="M36.918,19.092l-8.329-4.8v9.595Z" transform="translate(-15.778 -7.889)"/>
</svg>
